<svg width="80" height="80" viewBox="0 0 80 80" xmlns="http://www.w3.org/2000/svg"><g fill="none" fill-rule="evenodd"><path fill="#111" d="M0 0h80v80H0z"/><g fill="#F1E9DB" fill-rule="nonzero"><path d="M33.205 49.06a6.592 6.592 0 0 1-2.988.702c-.936 0-1.788-.144-2.556-.432-1.656-.612-3.066-1.806-4.23-3.582-.3-.432-.858-1.26-1.674-2.484a117.914 117.914 0 0 0-1.584-2.34c-.42-.66-.756-1.02-1.008-1.08v-.18h.36a3.53 3.53 0 0 0 1.692-.414c.78-.432 1.17-1.23 1.17-2.394 0-.852-.24-1.509-.72-1.971a2.403 2.403 0 0 0-1.728-.693h-1.368v10.494c0 .312.114.579.342.801.228.222.498.333.81.333h.234V46h-5.472v-.18h.234c.3 0 .564-.108.792-.324.228-.216.348-.48.36-.792v-9.99a1.159 1.159 0 0 0-.351-.801 1.092 1.092 0 0 0-.801-.333h-.234v-.18h6.174c1.548 0 2.748.354 3.6 1.062.672.552 1.008 1.332 1.008 2.34 0 1.008-.327 1.827-.981 2.457-.654.63-1.401.945-2.241.945-.072 0-.15-.006-.234-.018a5.37 5.37 0 0 1 1.233.882c.33.324.618.63.864.918.246.288.456.543.63.765a612.87 612.87 0 0 0 1.593 2.025c.312.396.657.801 1.035 1.215.378.414.798.807 1.26 1.179.462.372.933.678 1.413.918 1.02.516 2.142.78 3.366.792v.18Z"/><path d="M36.355 45.82c.312 0 .552-.078.72-.234.276-.276.42-.57.432-.882v-4.59h-5.832v4.572c0 .312.114.579.342.801.228.222.498.333.81.333h.216l.018.18h-5.472v-.18h.234c.312 0 .579-.111.801-.333.222-.222.339-.489.351-.801v-9.99a1.127 1.127 0 0 0-.351-.792 1.107 1.107 0 0 0-.801-.324h-.234v-.18h5.472l-.018.18h-.216c-.312 0-.582.108-.81.324a1.05 1.05 0 0 0-.342.792v4.644h5.832v-4.644a1.127 1.127 0 0 0-.351-.792 1.107 1.107 0 0 0-.801-.324h-.234v-.18h5.472v.18h-.234c-.312 0-.582.111-.81.333a1.078 1.078 0 0 0-.342.801v9.972c0 .312.114.579.342.801.228.222.498.333.81.333h.234V46h-5.472v-.18h.234ZM55.561 33.58h-.252c-.36 0-.702.102-1.026.306-.324.204-.582.45-.774.738l-3.546 5.652v4.41c0 .312.114.579.342.801.228.222.498.333.81.333h.216l.018.18h-5.472v-.18h.234c.312 0 .579-.108.801-.324.222-.216.339-.48.351-.792v-4.446l-3.438-5.652a2.237 2.237 0 0 0-.765-.729 1.953 1.953 0 0 0-1.017-.297h-.252v-.18h5.958v.18h-.234c-.264 0-.468.12-.612.36a.805.805 0 0 0-.108.387c0 .126.03.249.09.369l2.574 4.68 2.664-4.68a.637.637 0 0 0-.018-.738c-.144-.252-.348-.378-.612-.378h-.216v-.18h4.284v.18ZM55.957 45.82c.312 0 .579-.111.801-.333.222-.222.339-.489.351-.801V34.66a1.125 1.125 0 0 0-.594-.936 1.171 1.171 0 0 0-.558-.144h-.234v-.18h6.894c.372 0 .78-.036 1.224-.108.444-.072.756-.144.936-.216v3.15h-.18v-.216c0-.54-.159-.975-.477-1.305-.318-.33-.747-.507-1.287-.531h-3.024v5.238h2.376c.444-.012.81-.165 1.098-.459.288-.294.432-.657.432-1.089v-.162h.18v4.158h-.18v-.144c0-.6-.24-1.044-.72-1.332a1.773 1.773 0 0 0-.792-.216h-2.394v5.058h2.358c.876 0 1.611-.252 2.205-.756.594-.504 1.035-1.218 1.323-2.142h.18L65.047 46h-9.324v-.18h.234Z"/></g><g fill="#FFF" fill-rule="nonzero"><path d="M24.895 62.4c0-.433.077-.858.23-1.275a3.67 3.67 0 0 1 .675-1.14 3.279 3.279 0 0 1 1.085-.82 3.33 3.33 0 0 1 1.45-.305c.64 0 1.193.145 1.66.435.467.29.813.662 1.04 1.115l-.88.59a1.892 1.892 0 0 0-.505-.68 1.808 1.808 0 0 0-.66-.35 2.556 2.556 0 0 0-.695-.1c-.373 0-.7.075-.98.225-.28.15-.515.348-.705.595-.19.247-.333.523-.43.83a3.046 3.046 0 0 0-.145.92c0 .34.057.668.17.985.113.317.272.597.475.84.203.243.445.435.725.575.28.14.587.21.92.21a2.3 2.3 0 0 0 .71-.12c.247-.08.475-.205.685-.375.21-.17.375-.395.495-.675l.93.53a2.228 2.228 0 0 1-.685.9c-.31.247-.657.433-1.04.56-.383.127-.762.19-1.135.19-.5 0-.957-.105-1.37-.315-.413-.21-.77-.49-1.07-.84-.3-.35-.533-.743-.7-1.18a3.69 3.69 0 0 1-.25-1.325ZM36.045 66.05c-.513 0-.977-.1-1.39-.3-.413-.2-.77-.472-1.07-.815a3.798 3.798 0 0 1-.94-2.485c0-.473.087-.925.26-1.355.173-.43.413-.813.72-1.15a3.437 3.437 0 0 1 1.085-.8 3.134 3.134 0 0 1 1.355-.295c.507 0 .968.103 1.385.31.417.207.773.483 1.07.83.297.347.527.733.69 1.16.163.427.245.863.245 1.31a3.728 3.728 0 0 1-.97 2.505 3.373 3.373 0 0 1-1.085.795 3.18 3.18 0 0 1-1.355.29Zm-2.26-3.6c0 .333.053.657.16.97a2.7 2.7 0 0 0 .455.835 2.073 2.073 0 0 0 1.655.785c.36 0 .68-.073.96-.22.28-.147.515-.345.705-.595.19-.25.335-.53.435-.84a3.03 3.03 0 0 0-.005-1.9 2.578 2.578 0 0 0-.455-.83 2.207 2.207 0 0 0-.715-.575 2.02 2.02 0 0 0-.925-.21c-.36 0-.68.073-.96.22-.28.147-.517.343-.71.59a2.766 2.766 0 0 0-.445.83c-.103.307-.155.62-.155.94ZM41.615 66v-7.1h3.09c.32 0 .613.067.88.2s.498.31.695.53c.197.22.35.467.46.74.11.273.165.553.165.84 0 .313-.057.613-.17.9a2.116 2.116 0 0 1-.485.74c-.21.207-.455.357-.735.45l1.67 2.7h-1.26l-1.54-2.47h-1.65V66h-1.12Zm1.12-3.46h1.96c.207 0 .39-.06.55-.18.16-.12.287-.282.38-.485.093-.203.14-.425.14-.665a1.372 1.372 0 0 0-.575-1.14.943.943 0 0 0-.555-.18h-1.9v2.65ZM54.095 65.01V66h-4.87v-7.1h4.78v.99h-3.66v2.02h3.17v.93h-3.17v2.17z"/></g></g></svg>